# xmcd
#
# Track frame offsets: 
#        150
#        12932
#        25535
#        38395
#        51137
#        64345
#        76860
#        89607
#        101657
#        114992
#        127325
#        139752
#        152365
#        164690
#        177047
#        189590
#        202200
#        215845
#        228457
#        241710
#        255065
#        267910
#        280560
#
# Disc length: 3908 seconds
#
# Revision: 0
# Processed by: cddbd v1.4PL0 Copyright (c) Steve Scherf et al.
# Submitted via: ExactAudioCopy v0.90b4
#
DISCID=340f4217
DTITLE=Blind Boy Fuller - Complete Recorded Works in Chronological Ord
DTITLE=er - Volume 6
DYEAR=1940
DGENRE=Blues
TTITLE0=Blue and Worried Man
TTITLE1=Passenger Train Woman
TTITLE2=Shake It, Baby
TTITLE3=Somebody's Been Talkin'
TTITLE4=Three Ball Blues
TTITLE5=Little Woman You're So Sweet
TTITLE6=Harmonica Stomp
TTITLE7=Good Feeling Blues
TTITLE8=You Can't Hide from the Lord
TTITLE9=Twelve Gates to the City
TTITLE10=Crooked Woman Blues
TTITLE11=I Don't Want No Skinny Woman
TTITLE12=Bus Rider Blues
TTITLE13=You Got to Have Your Dollar
TTITLE14=Lost Lover Blues
TTITLE15=Thousand Woman Blues
TTITLE16=Bye Bye Baby
TTITLE17=When You Are Gone
TTITLE18=No Stranger Now
TTITLE19=Must Have Been My Jesus
TTITLE20=Jesus Is a Holy Man
TTITLE21=Precious Lord
TTITLE22=Night Rambling Woman
EXTD=
EXTT0=
EXTT1=
EXTT2=
EXTT3=
EXTT4=
EXTT5=
EXTT6=
EXTT7=
EXTT8=
EXTT9=
EXTT10=
EXTT11=
EXTT12=
EXTT13=
EXTT14=
EXTT15=
EXTT16=
EXTT17=
EXTT18=
EXTT19=
EXTT20=
EXTT21=
EXTT22=
PLAYORDER=
